<svg width="23" height="23" viewBox="0 0 23 23" fill="none" xmlns="http://www.w3.org/2000/svg">
<path d="M17.689 4.07292L15.4071 4.09063L15.3983 2.94968C15.3954 2.57547 15.0826 2.26755 14.7084 2.27046C14.3342 2.27336 14.0262 2.5861 14.0292 2.96031L14.038 4.10126L8.10518 4.1473L8.09633 3.00635C8.09343 2.63214 7.78069 2.32423 7.40648 2.32713C7.03227 2.33003 6.72431 2.64277 6.72722 3.01698L6.73607 4.15793L4.45422 4.17564C3.57802 4.18244 2.86254 4.90911 2.86934 5.78531L2.96497 18.1074C2.97177 18.9836 3.69845 19.6991 4.57464 19.6923L17.8094 19.5896C18.6857 19.5828 19.4012 18.8561 19.3944 17.9799L19.2987 5.6578C19.2919 4.7816 18.5653 4.06612 17.689 4.07292ZM4.4648 5.54475L17.6996 5.44203C17.8275 5.44104 17.9286 5.54065 17.9296 5.66842L17.9456 7.72212L4.25439 7.82837L4.23845 5.77468C4.23746 5.64691 4.33702 5.54574 4.4648 5.54475ZM17.7988 18.2204L4.56402 18.3231C4.43624 18.3241 4.33507 18.2245 4.33408 18.0967L4.26501 9.19749L17.9561 9.09123L18.0252 17.9904C18.0262 18.1183 17.9266 18.2194 17.7988 18.2204Z" fill="currentColor"/>
<path d="M7.4772 11.4546C6.97521 11.4585 6.56764 11.8724 6.57154 12.3744C6.57543 12.8764 6.98938 13.284 7.49136 13.2801L7.50048 13.28C8.00251 13.2761 8.41003 12.8622 8.40613 12.3602C8.39312 11.8582 7.97922 11.4507 7.4772 11.4546ZM11.1282 11.4263C10.617 11.4302 10.2186 11.844 10.2225 12.3461C10.2264 12.8481 10.6403 13.2556 11.1423 13.2517C11.6444 13.2478 12.0519 12.8339 12.048 12.3319C12.0441 11.8299 11.6393 11.4223 11.1282 11.4263ZM14.7791 11.3979C14.268 11.4019 13.8696 11.8157 13.8735 12.3177C13.8774 12.8198 14.2913 13.2273 14.7933 13.2234C15.2953 13.2195 15.7029 12.8056 15.699 12.3036C15.6951 11.8015 15.2811 11.394 14.7791 11.3979ZM7.50199 14.6492C7 14.6531 6.59243 15.067 6.59633 15.569C6.60023 16.071 7.01417 16.4786 7.51616 16.4747L7.52527 16.4746C8.0273 16.4707 8.43482 16.0568 8.43093 15.5548C8.41792 15.0528 8.00402 14.6453 7.50199 14.6492ZM11.153 14.6208C10.6418 14.6248 10.2434 15.0386 10.2473 15.5407C10.2512 16.0427 10.6651 16.4502 11.1671 16.4463C11.6692 16.4424 12.0767 16.0285 12.0728 15.5265C12.0689 15.0245 11.6641 14.6169 11.153 14.6208Z" fill="currentColor"/>
</svg>