<svg width="31" height="31" viewBox="0 0 31 31" fill="none" xmlns="http://www.w3.org/2000/svg">
<mask id="mask0_1113_2413" style="mask-type:luminance" maskUnits="userSpaceOnUse" x="0" y="0" width="31" height="31">
<path d="M0 0H31V31H0V0Z" fill="white"/>
</mask>
<g mask="url(#mask0_1113_2413)">
<mask id="mask1_1113_2413" style="mask-type:luminance" maskUnits="userSpaceOnUse" x="0" y="0" width="31" height="31">
<path d="M0 0H31V31H0V0Z" fill="white"/>
</mask>
<g mask="url(#mask1_1113_2413)">
<path d="M7.92973 22.7095C6.138 22.7095 4.68555 24.1619 4.68555 25.9536V27.035H14.0576V25.9536C14.0576 24.1619 12.6052 22.7095 10.8135 22.7095H7.92973ZM11.5344 18.7443C11.5344 19.9388 10.5661 20.9071 9.37159 20.9071C8.17708 20.9071 7.2088 19.9388 7.2088 18.7443C7.2088 17.5498 8.17708 16.5815 9.37159 16.5815C10.5661 16.5815 11.5344 17.5498 11.5344 18.7443Z" stroke="white" stroke-linejoin="round"/>
<path d="M20.1856 22.7095C18.3939 22.7095 16.9414 24.1619 16.9414 25.9536V27.035H26.3135V25.9536C26.3135 24.1619 24.861 22.7095 23.0693 22.7095H20.1856ZM23.7902 18.7443C23.7902 19.9388 22.822 20.9071 21.6275 20.9071C20.4329 20.9071 19.4647 19.9388 19.4647 18.7443C19.4647 17.5498 20.4329 16.5815 21.6275 16.5815C22.822 16.5815 23.7902 17.5498 23.7902 18.7443Z" stroke="white" stroke-linejoin="round"/>
<path d="M13.3369 6.48849C13.3369 5.69215 13.9824 5.04663 14.7788 5.04663H25.5927C26.3891 5.04663 27.0346 5.69215 27.0346 6.48849V10.4536C27.0346 11.2499 26.3891 11.8955 25.5927 11.8955H22.3485V14.7792L18.023 11.8955H14.7788C13.9824 11.8955 13.3369 11.2499 13.3369 10.4536V6.48849Z" stroke="white" stroke-linecap="round" stroke-linejoin="round"/>
</g>
</g>
</svg>
