<svg width="28" height="28" viewBox="0 0 28 28" fill="none" xmlns="http://www.w3.org/2000/svg">
<path d="M0.410156 0.361328H27.6373V27.5885H0.410156V0.361328Z" fill="white"/>
<path d="M0.404297 0.361328H27.6315V27.5885H0.404297V0.361328Z" fill="white"/>
<path d="M24.1822 13.9638L21.1083 5.46802C20.9836 5.12774 20.666 4.90088 20.303 4.90088H7.74645C7.38351 4.90088 7.06588 5.12774 6.94107 5.45669L3.86729 13.9524C3.83325 14.0545 3.81055 14.1566 3.81055 14.2474V22.1987C3.81055 23.2877 4.70665 24.1838 5.79552 24.1838H22.2426C23.3429 24.1838 24.2277 23.2877 24.2277 22.1987V14.2474C24.2277 14.1566 24.2163 14.0546 24.1823 13.9638M8.3363 6.60231H19.7018L22.3673 13.9638H18.8398C17.7395 13.9638 16.8548 14.8599 16.8548 15.9488V17.6729C16.8548 17.8317 16.73 17.9565 16.5712 17.9565H11.4669C11.3081 17.9565 11.1833 17.8317 11.1833 17.6729V15.9488C11.1833 14.8485 10.2872 13.9638 9.19832 13.9638H5.67076L8.3363 6.60231ZM22.5262 22.1987C22.5262 22.3575 22.4014 22.4823 22.2426 22.4823H5.79546C5.63667 22.4823 5.51192 22.3575 5.51192 22.1987V15.6653H9.19832C9.35716 15.6653 9.48191 15.7901 9.48191 15.9489V17.673C9.48191 18.7619 10.378 19.658 11.4669 19.658H16.5712C17.6715 19.658 18.5562 18.7619 18.5562 17.673V15.9489C18.5562 15.7901 18.6809 15.6653 18.8397 15.6653H22.5262V22.1987Z" fill="black"/>
</svg>
