<svg width="23" height="23" viewBox="0 0 23 23" fill="none" xmlns="http://www.w3.org/2000/svg">
<path d="M19.9203 18.1602L18.337 9.05604C18.2698 8.66638 18.067 8.31302 17.7644 8.0585C17.4618 7.80398 17.0789 7.66471 16.6835 7.66532H15.3345V6.70829C15.3345 4.59395 13.6143 2.87378 11.5 2.87378C9.38563 2.87378 7.66551 4.59395 7.66551 6.70829V7.66532H6.31647C5.92107 7.6647 5.53819 7.80396 5.23559 8.05847C4.93299 8.31298 4.73018 8.66633 4.66304 9.05599L3.07977 18.1601C3.03756 18.4012 3.04873 18.6487 3.11248 18.885C3.17624 19.1213 3.29103 19.3408 3.44878 19.5279C3.60614 19.7154 3.80271 19.8662 4.02462 19.9695C4.24653 20.0728 4.4884 20.1262 4.73319 20.1259H18.2669C18.5117 20.1262 18.7535 20.0728 18.9754 19.9695C19.1973 19.8662 19.3938 19.7155 19.5512 19.528C19.7089 19.3408 19.8238 19.1214 19.8875 18.885C19.9513 18.6487 19.9625 18.4013 19.9203 18.1602ZM9.10531 6.70829C9.10531 5.38786 10.1796 4.31358 11.5 4.31358C12.8205 4.31358 13.8947 5.38786 13.8947 6.70829V7.66532H9.10531V6.70829ZM18.4493 18.6012C18.4227 18.6329 18.3635 18.6861 18.2669 18.6861H4.73319C4.63655 18.6861 4.57734 18.6329 4.55066 18.6012C4.52398 18.5694 4.48171 18.502 4.49827 18.4069L6.08159 9.30269C6.09113 9.24734 6.11994 9.19715 6.16293 9.16099C6.20591 9.12483 6.2603 9.10505 6.31647 9.10512H7.66551V11.7396C7.66551 12.1372 7.98778 12.4595 8.38541 12.4595C8.78303 12.4595 9.10531 12.1372 9.10531 11.7396V9.10512H13.8947V11.7396C13.8947 12.1372 14.217 12.4595 14.6146 12.4595C15.0122 12.4595 15.3345 12.1372 15.3345 11.7396V9.10512H16.6835C16.7397 9.10501 16.7941 9.12478 16.8371 9.16095C16.8801 9.19711 16.9089 9.24733 16.9184 9.30269L18.5018 18.4069C18.5183 18.502 18.476 18.5695 18.4493 18.6012Z" fill="currentColor"/>
</svg>