<svg width="26" height="26" viewBox="0 0 26 26" fill="none" xmlns="http://www.w3.org/2000/svg">
<path d="M-0.00195312 -0.00012207H25.5794V25.5813H-0.00195312V-0.00012207Z" fill="white"/>
<path d="M-0.00292969 -0.000366211H25.5785V25.581H-0.00292969V-0.000366211Z" fill="white"/>
<path d="M7.22164 8.62598H2.75977V22.0116H7.22164V8.62598Z" stroke="#095C48" stroke-width="1.15117" stroke-linejoin="round"/>
<path d="M23.3777 22.0116V13.0462C23.3777 10.4407 21.2714 8.32849 18.6733 8.32849C17.4858 8.32863 16.3339 8.73383 15.4079 9.47716L14.1155 10.514V8.71757H9.75684V22.0116H14.1155V14.6118C14.1155 13.2539 15.2132 12.1531 16.5673 12.1531C17.9213 12.1531 19.019 13.2539 19.019 14.6118V22.0116H23.3777Z" stroke="#095C48" stroke-width="1.15117" stroke-linejoin="round"/>
<path d="M4.96658 1.78442C6.27992 1.78442 7.34624 2.85075 7.34624 4.16409C7.34624 5.47743 6.27992 6.54375 4.96658 6.54375C3.65324 6.54375 2.58691 5.47743 2.58691 4.16409C2.58691 2.85075 3.65324 1.78442 4.96658 1.78442Z" stroke="#095C48" stroke-width="1.15117" stroke-linejoin="round"/>
</svg>