<svg width="25" height="25" viewBox="0 0 25 25" fill="none" xmlns="http://www.w3.org/2000/svg">
<path d="M0.000976562 -0.000244141H24.3773V24.3761H0.000976562V-0.000244141Z" fill="white"/>
<path d="M0 -0.000244141H24.3763V24.3761H0V-0.000244141Z" fill="white"/>
<path d="M21.9391 11.8762C21.9391 17.1204 17.6879 21.3716 12.4437 21.3716C10.7423 21.3716 9.14533 20.9241 7.76421 20.1404L4.27006 21.4566L4.96966 17.7336C3.70334 16.1201 2.94824 14.0864 2.94824 11.8762C2.94824 6.63197 7.19947 2.38074 12.4437 2.38074C17.6879 2.38074 21.9391 6.63197 21.9391 11.8762Z" stroke="#095C48" stroke-width="1.09693" stroke-linejoin="round"/>
<path d="M7.40639 8.12804C8.17935 7.05906 8.9277 6.35186 9.07158 6.55333C9.21959 6.7548 9.57316 7.24817 9.86097 7.64698C10.157 8.04992 10.4859 8.50213 10.6011 8.66251C10.7162 8.81874 10.5352 9.22175 10.1981 9.55888C9.86097 9.89601 9.73762 10.3195 9.92265 10.5045L11.929 12.5109L13.8779 14.4598C14.0301 14.6119 14.4289 14.4639 14.766 14.1268C15.1031 13.7896 15.4938 13.6005 15.6336 13.7032C15.7734 13.806 16.2626 14.1597 16.7231 14.4968C17.1836 14.8339 17.6934 15.204 17.862 15.3273C18.0306 15.4507 17.3069 16.1825 16.2462 16.9637C15.1854 17.7449 13.0186 17.0747 11.4151 15.4712L8.91534 12.9714C7.31183 11.3679 6.63344 9.19703 7.40639 8.12804Z" stroke="#095C48" stroke-width="1.09693" stroke-linecap="round" stroke-linejoin="round"/>
</svg>
