<svg width="31" height="31" viewBox="0 0 31 31" fill="none" xmlns="http://www.w3.org/2000/svg">
<path d="M7.92973 22.7095C6.138 22.7095 4.68555 24.1619 4.68555 25.9536V27.035H14.0576V25.9536C14.0576 24.1619 12.6052 22.7095 10.8135 22.7095H7.92973ZM11.5344 18.7443C11.5344 19.9388 10.5661 20.9071 9.37159 20.9071C8.17708 20.9071 7.2088 19.9388 7.2088 18.7443C7.2088 17.5498 8.17708 16.5815 9.37159 16.5815C10.5661 16.5815 11.5344 17.5498 11.5344 18.7443Z" stroke="currentColor" stroke-linejoin="round"/>
<path d="M20.1861 22.7095C18.3944 22.7095 16.9419 24.1619 16.9419 25.9536V27.035H26.314V25.9536C26.314 24.1619 24.8615 22.7095 23.0698 22.7095H20.1861ZM23.7907 18.7443C23.7907 19.9388 22.8225 20.9071 21.6279 20.9071C20.4334 20.9071 19.4652 19.9388 19.4652 18.7443C19.4652 17.5498 20.4334 16.5815 21.6279 16.5815C22.8225 16.5815 23.7907 17.5498 23.7907 18.7443Z" stroke="currentColor" stroke-linejoin="round"/>
<path d="M13.3369 6.48849C13.3369 5.69215 13.9824 5.04663 14.7788 5.04663H25.5927C26.3891 5.04663 27.0346 5.69215 27.0346 6.48849V10.4536C27.0346 11.2499 26.3891 11.8955 25.5927 11.8955H22.3485V14.7792L18.023 11.8955H14.7788C13.9824 11.8955 13.3369 11.2499 13.3369 10.4536V6.48849Z" stroke="currentColor" stroke-linecap="round" stroke-linejoin="round"/>
</svg>