<svg width="27" height="27" viewBox="0 0 27 27" fill="none" xmlns="http://www.w3.org/2000/svg">
<path d="M0.00195312 -0.000244141H26.8305V26.8283H0.00195312V-0.000244141Z" fill="white"/>
<path d="M0.00390625 -0.000976562H26.8324V26.8275H0.00390625V-0.000976562Z" fill="white"/>
<path d="M19.0032 15.6497C17.7782 15.6497 16.6963 16.2275 15.9787 17.1116L10.4898 14.3677C10.5669 14.0603 10.6206 13.7452 10.6206 13.4143C10.6206 13.0835 10.5669 12.7672 10.4898 12.4609L15.9776 9.71701C16.6952 10.6011 17.7782 11.179 19.0032 11.179C21.1603 11.179 22.915 9.42421 22.915 7.26709C22.915 5.10997 21.1603 3.35522 19.0032 3.35522C16.846 3.35522 15.0913 5.10997 15.0913 7.26709C15.0913 7.59794 15.145 7.91312 15.2221 8.22047L9.73317 10.9644C9.01561 10.0803 7.93373 9.50244 6.70874 9.50244C4.55162 9.50244 2.79688 11.2572 2.79688 13.4143C2.79688 15.5714 4.55162 17.3262 6.70874 17.3262C7.93373 17.3262 9.01561 16.7483 9.73317 15.8642L15.2221 18.6081C15.145 18.9155 15.0913 19.2307 15.0913 19.5615C15.0913 21.7186 16.846 23.4734 19.0032 23.4734C21.1603 23.4734 22.915 21.7186 22.915 19.5615C22.915 17.4044 21.1603 15.6497 19.0032 15.6497ZM19.0032 5.03174C20.2359 5.03174 21.2385 6.03432 21.2385 7.26709C21.2385 8.49986 20.2359 9.50244 19.0032 9.50244C17.7704 9.50244 16.7678 8.49986 16.7678 7.26709C16.7678 6.03432 17.7704 5.03174 19.0032 5.03174ZM6.70874 15.6497C5.47597 15.6497 4.47339 14.6471 4.47339 13.4143C4.47339 12.1815 5.47597 11.179 6.70874 11.179C7.94151 11.179 8.94409 12.1815 8.94409 13.4143C8.94409 14.6471 7.94151 15.6497 6.70874 15.6497ZM19.0032 21.7969C17.7704 21.7969 16.7678 20.7943 16.7678 19.5615C16.7678 18.3287 17.7704 17.3262 19.0032 17.3262C20.2359 17.3262 21.2385 18.3287 21.2385 19.5615C21.2385 20.7943 20.2359 21.7969 19.0032 21.7969Z" fill="black"/>
</svg>