<svg width="23" height="23" viewBox="0 0 23 23" fill="none" xmlns="http://www.w3.org/2000/svg">
<path d="M14.4404 9.79589C14.4404 11.4196 13.1241 12.7356 11.5005 12.7356C9.87681 12.7356 8.56055 11.4196 8.56055 9.79589C8.56055 8.17223 9.87681 6.85596 11.5005 6.85596C13.1241 6.85596 14.4404 8.17223 14.4404 9.79589Z" stroke="currentColor" stroke-width="1.2" stroke-linecap="round" stroke-linejoin="round"/>
<path d="M5.57171 11.7749C5.37008 11.151 5.25195 10.4875 5.25195 9.79558C5.25195 6.20846 8.27537 3.32731 11.9151 3.5617C15.0008 3.76032 17.5094 6.25077 17.7317 9.33486C17.7897 10.1399 17.6877 10.9132 17.4728 11.6349C16.4697 15.0022 11.501 19.962 11.501 19.962C11.501 19.962 6.82413 15.6498 5.57171 11.7749Z" stroke="currentColor" stroke-width="1.2" stroke-linecap="round" stroke-linejoin="round"/>
</svg>
