<svg class="icon icon-close" width="31" height="31" viewBox="0 0 31 31" fill="none" xmlns="http://www.w3.org/2000/svg">
<path d="M0 0H30.697V30.697H0V0Z" fill="white"/>
<path d="M-0.00195312 0H30.695V30.697H-0.00195312V0Z" fill="white"/>
<path d="M20.1822 10.5149C19.8113 10.1441 19.1975 10.1441 18.8267 10.5149L15.3483 13.9932L11.87 10.5149C11.4992 10.1441 10.8853 10.1441 10.5145 10.5149C10.1436 10.8857 10.1436 11.4996 10.5145 11.8705L13.9928 15.3487L10.5145 18.8271C10.1436 19.1979 10.1436 19.8118 10.5145 20.1826C10.7063 20.3744 10.9493 20.4639 11.1923 20.4639C11.4353 20.4639 11.6782 20.3744 11.8701 20.1826L15.3483 16.7043L18.8267 20.1826C19.0185 20.3744 19.2615 20.4639 19.5044 20.4639C19.7474 20.4639 19.9904 20.3744 20.1822 20.1826C20.553 19.8118 20.553 19.1979 20.1822 18.8271L16.7039 15.3487L20.1822 11.8705C20.553 11.4996 20.5531 10.8857 20.1822 10.5149Z" fill="black"/>
<path d="M15.0414 2.55996C11.6269 2.6367 8.44261 4.05619 6.08956 6.52435C3.73652 9.00528 2.48328 12.2407 2.55996 15.6552C2.63664 19.0697 4.05619 22.254 6.52435 24.6071C8.92854 26.8962 12.0361 28.1367 15.3356 28.1367H15.6552C19.0697 28.0599 22.254 26.6404 24.607 24.1723C26.9601 21.7041 28.2133 18.4559 28.1366 15.0414C28.0598 11.6269 26.6404 8.44261 24.1722 6.08956C21.6913 3.73652 18.4431 2.48328 15.0414 2.55996M23.2131 22.8423C21.2053 24.9395 18.507 26.1417 15.604 26.2057C12.7138 26.2824 9.93878 25.2081 7.8415 23.2131C5.74422 21.2054 4.54207 18.507 4.47815 15.6041C4.41418 12.7139 5.47562 9.95161 7.48339 7.85433C9.49116 5.75705 12.1895 4.55496 15.0925 4.49099H15.361C18.1617 4.49099 20.8089 5.55249 22.855 7.49622C24.9523 9.50405 26.1544 12.2024 26.2184 15.1054C26.2823 17.9827 25.2209 20.745 23.2131 22.8423" fill="black"/>
</svg>