<svg width="25" height="25" viewBox="0 0 25 25" fill="none" xmlns="http://www.w3.org/2000/svg">
<path d="M0 0H24.6512V24.6512H0V0Z" fill="white"/>
<path d="M0 0H24.6512V24.6512H0V0Z" fill="white"/>
<path d="M0 0H24.6512V24.6512H0V0Z" fill="white"/>
<path d="M13.6092 1.7207C11.4316 1.76536 9.68012 3.54455 9.68012 5.73282V10.0529H6.36328V14.2195H9.68012V22.9313" stroke="#095C48" stroke-width="1.1093" stroke-linecap="round" stroke-linejoin="round"/>
<path d="M17.9211 5.88641V1.71985H13.6931C11.4768 1.71985 9.68012 3.51652 9.68012 5.73283V10.0529H6.36328V14.2195H9.68012V22.9313H13.8467V14.2195H17.1635L18.2998 10.0529H13.8467V7.03298C13.8467 6.39973 14.36 5.88641 14.9933 5.88641H17.9211Z" stroke="#095C48" stroke-width="1.1093" stroke-linecap="round" stroke-linejoin="round"/>
</svg>