<svg width="28" height="28" viewBox="0 0 28 28" fill="none" xmlns="http://www.w3.org/2000/svg">
<path d="M0 0H27.2736V27.2736H0V0Z" fill="white"/>
<path d="M0.000976562 -0.00012207H27.2745V27.2734H0.000976562V-0.00012207Z" fill="white"/>
<path d="M7.35927 3.48816H7.29585C5.19407 3.48816 3.49023 5.192 3.49023 7.29377V19.9791C3.49023 22.0809 5.19407 23.7848 7.29585 23.7848H7.35927" stroke="#095C48" stroke-width="1.22727"/>
<path d="M19.9769 7.29358H19.9727" stroke="#095C48" stroke-width="2.04545" stroke-linecap="round" stroke-linejoin="round"/>
<path d="M23.7868 12.6839V7.29377C23.7868 5.192 22.083 3.48816 19.9812 3.48816H7.29585C5.19407 3.48816 3.49023 5.192 3.49023 7.29377V19.9791C3.49023 22.0809 5.19407 23.7848 7.29585 23.7848H19.9812C22.083 23.7848 23.7868 22.0809 23.7868 19.9791V12.6839Z" stroke="#095C48" stroke-width="1.22727" stroke-linecap="round" stroke-linejoin="round"/>
<path d="M13.6384 8.245C16.6138 8.245 19.0296 10.6609 19.0296 13.6363C19.0296 16.6117 16.6138 19.0276 13.6384 19.0276C10.6629 19.0276 8.24707 16.6117 8.24707 13.6363C8.24707 10.6609 10.6629 8.245 13.6384 8.245Z" stroke="#095C48" stroke-width="1.22727"/>
</svg>
