<svg width="8" height="18" viewBox="0 0 8 18" fill="none" xmlns="http://www.w3.org/2000/svg">
<path d="M1.16667 8.5H0.833333C0.649238 8.5 0.5 8.94772 0.5 9.5V16.5C0.5 17.0523 0.649238 17.5 0.833333 17.5H1.16667C1.35076 17.5 1.5 17.0523 1.5 16.5V9.5C1.5 8.94772 1.35076 8.5 1.16667 8.5Z" fill="currentColor"/>
<path d="M4.16667 0.5H3.83333C3.64924 0.5 3.5 0.947715 3.5 1.5V16.5C3.5 17.0523 3.64924 17.5 3.83333 17.5H4.16667C4.35076 17.5 4.5 17.0523 4.5 16.5V1.5C4.5 0.947715 4.35076 0.5 4.16667 0.5Z" fill="currentColor"/>
<path d="M7.16667 12.5H6.83333C6.64924 12.5 6.5 12.9477 6.5 13.5V16.5C6.5 17.0523 6.64924 17.5 6.83333 17.5H7.16667C7.35076 17.5 7.5 17.0523 7.5 16.5V13.5C7.5 12.9477 7.35076 12.5 7.16667 12.5Z" fill="currentColor"/>
</svg>