<svg width="25" height="23" viewBox="0 0 25 23" fill="none" xmlns="http://www.w3.org/2000/svg">
<path d="M11.7023 3.33971L12.3875 4.14436L13.0727 3.33971C14.2545 1.95189 16.0709 1.07334 17.9487 1.07334C21.2579 1.07334 23.8457 3.66108 23.8457 6.97034C23.8457 9.00873 22.9378 10.9287 21.1569 13.1073C19.3657 15.2985 16.7863 17.6405 13.5905 20.5385L13.576 20.5515L13.5736 20.5538L12.3852 21.6356L11.2012 20.566L11.1989 20.5639L11.1525 20.5217L11.1521 20.5213C7.96552 17.6256 5.3943 15.286 3.60897 13.0977C1.83401 10.922 0.929297 9.0052 0.929297 6.97034C0.929297 3.66108 3.51703 1.07334 6.8263 1.07334C8.70412 1.07334 10.5205 1.95189 11.7023 3.33971Z" stroke="currentColor" stroke-width="1.8"/>
</svg>